<svg width="18" height="18" viewBox="0 0 18 18" fill="none" xmlns="http://www.w3.org/2000/svg">
<path d="M8.9999 7.80001C10.1699 7.80001 11.0999 6.87001 11.0999 5.70001C11.0999 4.53001 10.1699 3.60001 8.9999 3.60001C7.8299 3.60001 6.8999 4.53001 6.8999 5.70001C6.8999 6.87001 7.8299 7.80001 8.9999 7.80001ZM8.9999 4.20001C9.8399 4.20001 10.4999 4.86001 10.4999 5.70001C10.4999 6.54001 9.8399 7.20001 8.9999 7.20001C8.1599 7.20001 7.4999 6.54001 7.4999 5.70001C7.4999 4.86001 8.1599 4.20001 8.9999 4.20001Z" fill="#00AAC4" stroke="#00AAC4" stroke-width="0.5" stroke-miterlimit="10"/>
<path d="M8.93999 16.44L13.53 9.78C15.27 7.47 15 3.69 12.99 1.68C11.94 0.6 10.47 0 8.93999 0C7.40999 0 5.96999 0.6 4.85999 1.68C2.84999 3.69 2.60999 7.47 4.31999 9.78L8.93999 16.44ZM5.30999 2.1C6.26999 1.14 7.58999 0.6 8.93999 0.6C10.29 0.6 11.61 1.14 12.6 2.1C14.4 3.9 14.64 7.32 13.08 9.42L8.93999 15.36L4.82999 9.42C3.26999 7.35 3.47999 3.93 5.30999 2.1Z" fill="#00AAC4" stroke="#00AAC4" stroke-width="0.5" stroke-miterlimit="10"/>
<path d="M12.63 12.9C12.48 12.87 12.33 12.99 12.3 13.17C12.27 13.35 12.39 13.47 12.57 13.5C15.72 13.86 17.4 14.88 17.4 15.45C17.4 16.26 14.19 17.4 9 17.4C3.81 17.4 0.6 16.26 0.6 15.45C0.6 14.88 2.28 13.86 5.43 13.5C5.58 13.47 5.7 13.32 5.7 13.17C5.67 13.02 5.52 12.9 5.37 12.9C2.22 13.26 0 14.31 0 15.45C0 16.71 3.09 18 9 18C14.91 18 18 16.71 18 15.45C18 14.31 15.78 13.26 12.63 12.9Z" fill="#00AAC4" stroke="#00AAC4" stroke-width="0.5" stroke-miterlimit="10"/>
</svg>
